<mxfile host="Electron" agent="Mozilla/5.0 (X11; Linux x86_64) AppleWebKit/537.36 (KHTML, like Gecko) draw.io/24.7.5 Chrome/126.0.6478.183 Electron/31.3.0 Safari/537.36" version="24.7.5" pages="2">
  <diagram name="Component Model" id="M_wY99FwuveyA5APPCFu">
    <mxGraphModel dx="2284" dy="780" grid="1" gridSize="10" guides="1" tooltips="1" connect="1" arrows="1" fold="1" page="1" pageScale="1" pageWidth="850" pageHeight="1100" math="0" shadow="0">
      <root>
        <mxCell id="0" />
        <mxCell id="1" parent="0" />
        <mxCell id="I6AgZN-Wcs3GqbJZjrgB-2" value="pins" style="swimlane;fontStyle=0;childLayout=stackLayout;horizontal=1;startSize=30;horizontalStack=0;resizeParent=1;resizeParentMax=0;resizeLast=0;collapsible=1;marginBottom=0;whiteSpace=wrap;html=1;" parent="1" vertex="1">
          <mxGeometry x="-170" y="190" width="220" height="120" as="geometry" />
        </mxCell>
        <mxCell id="I6AgZN-Wcs3GqbJZjrgB-3" value="1 - VCC/GND" style="text;strokeColor=none;fillColor=none;align=left;verticalAlign=middle;spacingLeft=4;spacingRight=4;overflow=hidden;points=[[0,0.5],[1,0.5]];portConstraint=eastwest;rotatable=0;whiteSpace=wrap;html=1;" parent="I6AgZN-Wcs3GqbJZjrgB-2" vertex="1">
          <mxGeometry y="30" width="220" height="30" as="geometry" />
        </mxCell>
        <mxCell id="I6AgZN-Wcs3GqbJZjrgB-4" value="2 - SIGNAL" style="text;strokeColor=none;fillColor=none;align=left;verticalAlign=middle;spacingLeft=4;spacingRight=4;overflow=hidden;points=[[0,0.5],[1,0.5]];portConstraint=eastwest;rotatable=0;whiteSpace=wrap;html=1;" parent="I6AgZN-Wcs3GqbJZjrgB-2" vertex="1">
          <mxGeometry y="60" width="220" height="30" as="geometry" />
        </mxCell>
        <mxCell id="I6AgZN-Wcs3GqbJZjrgB-5" value="3 - VCC/GND" style="text;strokeColor=none;fillColor=none;align=left;verticalAlign=middle;spacingLeft=4;spacingRight=4;overflow=hidden;points=[[0,0.5],[1,0.5]];portConstraint=eastwest;rotatable=0;whiteSpace=wrap;html=1;" parent="I6AgZN-Wcs3GqbJZjrgB-2" vertex="1">
          <mxGeometry y="90" width="220" height="30" as="geometry" />
        </mxCell>
        <mxCell id="I6AgZN-Wcs3GqbJZjrgB-22" value="" style="rounded=0;whiteSpace=wrap;html=1;fillColor=#fad7ac;strokeColor=#b46504;" parent="1" vertex="1">
          <mxGeometry x="200" y="360" width="1280" height="160" as="geometry" />
        </mxCell>
        <mxCell id="I6AgZN-Wcs3GqbJZjrgB-23" value="" style="rounded=0;whiteSpace=wrap;html=1;" parent="1" vertex="1">
          <mxGeometry x="200" y="560" width="1280" height="160" as="geometry" />
        </mxCell>
        <mxCell id="I6AgZN-Wcs3GqbJZjrgB-24" value="" style="rounded=0;whiteSpace=wrap;html=1;fillColor=#f5f5f5;gradientColor=#b3b3b3;strokeColor=#666666;" parent="1" vertex="1">
          <mxGeometry x="1475" y="450" width="5" height="20" as="geometry" />
        </mxCell>
        <mxCell id="I6AgZN-Wcs3GqbJZjrgB-25" value="" style="rounded=0;whiteSpace=wrap;html=1;fillColor=#f5f5f5;gradientColor=#b3b3b3;strokeColor=#666666;" parent="1" vertex="1">
          <mxGeometry x="200" y="450" width="5" height="20" as="geometry" />
        </mxCell>
        <mxCell id="I6AgZN-Wcs3GqbJZjrgB-26" value="" style="rounded=0;whiteSpace=wrap;html=1;fillColor=#f5f5f5;gradientColor=#b3b3b3;strokeColor=#666666;" parent="1" vertex="1">
          <mxGeometry x="200" y="490" width="5" height="20" as="geometry" />
        </mxCell>
        <mxCell id="I6AgZN-Wcs3GqbJZjrgB-30" value="" style="group" parent="1" vertex="1" connectable="0">
          <mxGeometry x="1445" y="450" width="20" height="20" as="geometry" />
        </mxCell>
        <mxCell id="I6AgZN-Wcs3GqbJZjrgB-28" value="" style="ellipse;whiteSpace=wrap;html=1;aspect=fixed;fillColor=#f5f5f5;gradientColor=#b3b3b3;strokeColor=#666666;" parent="I6AgZN-Wcs3GqbJZjrgB-30" vertex="1">
          <mxGeometry width="20" height="20" as="geometry" />
        </mxCell>
        <mxCell id="I6AgZN-Wcs3GqbJZjrgB-29" value="" style="ellipse;whiteSpace=wrap;html=1;aspect=fixed;" parent="I6AgZN-Wcs3GqbJZjrgB-30" vertex="1">
          <mxGeometry x="5" y="5" width="10" height="10" as="geometry" />
        </mxCell>
        <mxCell id="I6AgZN-Wcs3GqbJZjrgB-31" value="" style="group" parent="1" vertex="1" connectable="0">
          <mxGeometry x="215" y="450" width="20" height="20" as="geometry" />
        </mxCell>
        <mxCell id="I6AgZN-Wcs3GqbJZjrgB-32" value="" style="ellipse;whiteSpace=wrap;html=1;aspect=fixed;fillColor=#f5f5f5;gradientColor=#b3b3b3;strokeColor=#666666;" parent="I6AgZN-Wcs3GqbJZjrgB-31" vertex="1">
          <mxGeometry width="20" height="20" as="geometry" />
        </mxCell>
        <mxCell id="I6AgZN-Wcs3GqbJZjrgB-33" value="" style="ellipse;whiteSpace=wrap;html=1;aspect=fixed;" parent="I6AgZN-Wcs3GqbJZjrgB-31" vertex="1">
          <mxGeometry x="5" y="5" width="10" height="10" as="geometry" />
        </mxCell>
        <mxCell id="I6AgZN-Wcs3GqbJZjrgB-34" value="" style="group" parent="1" vertex="1" connectable="0">
          <mxGeometry x="215" y="490" width="20" height="20" as="geometry" />
        </mxCell>
        <mxCell id="I6AgZN-Wcs3GqbJZjrgB-35" value="" style="ellipse;whiteSpace=wrap;html=1;aspect=fixed;fillColor=#f5f5f5;gradientColor=#b3b3b3;strokeColor=#666666;" parent="I6AgZN-Wcs3GqbJZjrgB-34" vertex="1">
          <mxGeometry width="20" height="20" as="geometry" />
        </mxCell>
        <mxCell id="I6AgZN-Wcs3GqbJZjrgB-36" value="" style="ellipse;whiteSpace=wrap;html=1;aspect=fixed;" parent="I6AgZN-Wcs3GqbJZjrgB-34" vertex="1">
          <mxGeometry x="5" y="5" width="10" height="10" as="geometry" />
        </mxCell>
        <mxCell id="I6AgZN-Wcs3GqbJZjrgB-38" value="1" style="text;html=1;align=center;verticalAlign=middle;whiteSpace=wrap;rounded=0;" parent="1" vertex="1">
          <mxGeometry x="155" y="445" width="60" height="30" as="geometry" />
        </mxCell>
        <mxCell id="I6AgZN-Wcs3GqbJZjrgB-39" value="2" style="text;html=1;align=center;verticalAlign=middle;whiteSpace=wrap;rounded=0;" parent="1" vertex="1">
          <mxGeometry x="155" y="485" width="60" height="30" as="geometry" />
        </mxCell>
        <mxCell id="I6AgZN-Wcs3GqbJZjrgB-44" value="IF&lt;div&gt;3 - GND &amp;amp;&amp;amp; 1 ==vcc&lt;/div&gt;&lt;div&gt;tHEN:&lt;br&gt;2 is HIGH near pins 1 and 2&lt;br&gt;And 2 is LOW near pin 3&lt;/div&gt;&lt;div&gt;&lt;br&gt;&lt;/div&gt;" style="text;html=1;align=left;verticalAlign=middle;whiteSpace=wrap;rounded=0;" parent="1" vertex="1">
          <mxGeometry x="-170" y="400" width="210" height="230" as="geometry" />
        </mxCell>
        <mxCell id="I6AgZN-Wcs3GqbJZjrgB-45" value="3" style="text;html=1;align=center;verticalAlign=middle;whiteSpace=wrap;rounded=0;" parent="1" vertex="1">
          <mxGeometry x="1460" y="445" width="60" height="30" as="geometry" />
        </mxCell>
        <mxCell id="DLIzXoxvR8kfo_P6PD7F-1" value="" style="group" parent="1" vertex="1" connectable="0">
          <mxGeometry x="155" y="160" width="1365" height="160" as="geometry" />
        </mxCell>
        <mxCell id="I6AgZN-Wcs3GqbJZjrgB-1" value="" style="rounded=0;whiteSpace=wrap;html=1;" parent="DLIzXoxvR8kfo_P6PD7F-1" vertex="1">
          <mxGeometry x="45" width="1280" height="160" as="geometry" />
        </mxCell>
        <mxCell id="I6AgZN-Wcs3GqbJZjrgB-6" value="" style="rounded=0;whiteSpace=wrap;html=1;fillColor=#f5f5f5;gradientColor=#b3b3b3;strokeColor=#666666;" parent="DLIzXoxvR8kfo_P6PD7F-1" vertex="1">
          <mxGeometry x="45" width="1280" height="10" as="geometry" />
        </mxCell>
        <mxCell id="I6AgZN-Wcs3GqbJZjrgB-8" value="" style="rounded=0;whiteSpace=wrap;html=1;fillColor=#f5f5f5;gradientColor=#b3b3b3;strokeColor=#666666;" parent="DLIzXoxvR8kfo_P6PD7F-1" vertex="1">
          <mxGeometry x="45" y="150" width="1280" height="10" as="geometry" />
        </mxCell>
        <mxCell id="I6AgZN-Wcs3GqbJZjrgB-14" value="" style="group" parent="DLIzXoxvR8kfo_P6PD7F-1" vertex="1" connectable="0">
          <mxGeometry x="1275" y="60" width="50" height="40" as="geometry" />
        </mxCell>
        <mxCell id="I6AgZN-Wcs3GqbJZjrgB-9" value="" style="ellipse;whiteSpace=wrap;html=1;aspect=fixed;fillColor=#f5f5f5;gradientColor=#b3b3b3;strokeColor=#666666;" parent="I6AgZN-Wcs3GqbJZjrgB-14" vertex="1">
          <mxGeometry width="40" height="40" as="geometry" />
        </mxCell>
        <mxCell id="I6AgZN-Wcs3GqbJZjrgB-11" value="" style="rounded=0;whiteSpace=wrap;html=1;fillColor=#f5f5f5;gradientColor=#b3b3b3;strokeColor=none;" parent="I6AgZN-Wcs3GqbJZjrgB-14" vertex="1">
          <mxGeometry x="20" width="30" height="40" as="geometry" />
        </mxCell>
        <mxCell id="I6AgZN-Wcs3GqbJZjrgB-12" value="" style="ellipse;whiteSpace=wrap;html=1;aspect=fixed;" parent="I6AgZN-Wcs3GqbJZjrgB-14" vertex="1">
          <mxGeometry x="5" y="5" width="30" height="30" as="geometry" />
        </mxCell>
        <mxCell id="I6AgZN-Wcs3GqbJZjrgB-15" value="" style="group;rotation=-180;" parent="DLIzXoxvR8kfo_P6PD7F-1" vertex="1" connectable="0">
          <mxGeometry x="45" y="60" width="50" height="40" as="geometry" />
        </mxCell>
        <mxCell id="I6AgZN-Wcs3GqbJZjrgB-16" value="" style="ellipse;whiteSpace=wrap;html=1;aspect=fixed;fillColor=#f5f5f5;gradientColor=#b3b3b3;strokeColor=#666666;rotation=-180;" parent="I6AgZN-Wcs3GqbJZjrgB-15" vertex="1">
          <mxGeometry x="10" width="40" height="40" as="geometry" />
        </mxCell>
        <mxCell id="I6AgZN-Wcs3GqbJZjrgB-17" value="" style="rounded=0;whiteSpace=wrap;html=1;fillColor=#f5f5f5;gradientColor=#b3b3b3;strokeColor=none;rotation=-180;" parent="I6AgZN-Wcs3GqbJZjrgB-15" vertex="1">
          <mxGeometry width="30" height="40" as="geometry" />
        </mxCell>
        <mxCell id="I6AgZN-Wcs3GqbJZjrgB-18" value="" style="ellipse;whiteSpace=wrap;html=1;aspect=fixed;rotation=-180;" parent="I6AgZN-Wcs3GqbJZjrgB-15" vertex="1">
          <mxGeometry x="15" y="5" width="30" height="30" as="geometry" />
        </mxCell>
        <mxCell id="I6AgZN-Wcs3GqbJZjrgB-19" value="" style="rounded=0;whiteSpace=wrap;html=1;" parent="DLIzXoxvR8kfo_P6PD7F-1" vertex="1">
          <mxGeometry x="135" y="75" width="1100" height="10" as="geometry" />
        </mxCell>
        <mxCell id="I6AgZN-Wcs3GqbJZjrgB-21" value="" style="rounded=0;whiteSpace=wrap;html=1;fillColor=#f5f5f5;gradientColor=#b3b3b3;strokeColor=#666666;" parent="DLIzXoxvR8kfo_P6PD7F-1" vertex="1">
          <mxGeometry x="135" y="75" width="80" height="10" as="geometry" />
        </mxCell>
        <mxCell id="I6AgZN-Wcs3GqbJZjrgB-40" value="1" style="text;html=1;align=center;verticalAlign=middle;whiteSpace=wrap;rounded=0;" parent="DLIzXoxvR8kfo_P6PD7F-1" vertex="1">
          <mxGeometry y="40" width="60" height="30" as="geometry" />
        </mxCell>
        <mxCell id="I6AgZN-Wcs3GqbJZjrgB-42" value="2" style="text;html=1;align=center;verticalAlign=middle;whiteSpace=wrap;rounded=0;" parent="DLIzXoxvR8kfo_P6PD7F-1" vertex="1">
          <mxGeometry y="10" width="60" height="30" as="geometry" />
        </mxCell>
        <mxCell id="I6AgZN-Wcs3GqbJZjrgB-46" value="3" style="text;html=1;align=center;verticalAlign=middle;whiteSpace=wrap;rounded=0;" parent="DLIzXoxvR8kfo_P6PD7F-1" vertex="1">
          <mxGeometry x="1305" y="40" width="60" height="30" as="geometry" />
        </mxCell>
      </root>
    </mxGraphModel>
  </diagram>
  <diagram id="suR-G69dr7qTjZx9mQQG" name="Example Circuit">
    <mxGraphModel dx="1195" dy="1777" grid="1" gridSize="10" guides="1" tooltips="1" connect="1" arrows="1" fold="1" page="1" pageScale="1" pageWidth="850" pageHeight="1100" math="0" shadow="0">
      <root>
        <mxCell id="0" />
        <mxCell id="1" parent="0" />
        <mxCell id="l3B4yUSU5wSjZGf5PrX2-1" value="" style="group" vertex="1" connectable="0" parent="1">
          <mxGeometry x="155" y="160" width="1365" height="160" as="geometry" />
        </mxCell>
        <mxCell id="l3B4yUSU5wSjZGf5PrX2-2" value="" style="rounded=0;whiteSpace=wrap;html=1;" vertex="1" parent="l3B4yUSU5wSjZGf5PrX2-1">
          <mxGeometry x="45" width="1280" height="160" as="geometry" />
        </mxCell>
        <mxCell id="l3B4yUSU5wSjZGf5PrX2-3" value="" style="rounded=0;whiteSpace=wrap;html=1;fillColor=#f5f5f5;gradientColor=#b3b3b3;strokeColor=#666666;" vertex="1" parent="l3B4yUSU5wSjZGf5PrX2-1">
          <mxGeometry x="45" width="1280" height="10" as="geometry" />
        </mxCell>
        <mxCell id="l3B4yUSU5wSjZGf5PrX2-4" value="" style="rounded=0;whiteSpace=wrap;html=1;fillColor=#f5f5f5;gradientColor=#b3b3b3;strokeColor=#666666;" vertex="1" parent="l3B4yUSU5wSjZGf5PrX2-1">
          <mxGeometry x="45" y="150" width="1280" height="10" as="geometry" />
        </mxCell>
        <mxCell id="l3B4yUSU5wSjZGf5PrX2-5" value="" style="group" vertex="1" connectable="0" parent="l3B4yUSU5wSjZGf5PrX2-1">
          <mxGeometry x="1275" y="60" width="50" height="40" as="geometry" />
        </mxCell>
        <mxCell id="l3B4yUSU5wSjZGf5PrX2-6" value="" style="ellipse;whiteSpace=wrap;html=1;aspect=fixed;fillColor=#f5f5f5;gradientColor=#b3b3b3;strokeColor=#666666;" vertex="1" parent="l3B4yUSU5wSjZGf5PrX2-5">
          <mxGeometry width="40" height="40" as="geometry" />
        </mxCell>
        <mxCell id="l3B4yUSU5wSjZGf5PrX2-7" value="" style="rounded=0;whiteSpace=wrap;html=1;fillColor=#f5f5f5;gradientColor=#b3b3b3;strokeColor=none;" vertex="1" parent="l3B4yUSU5wSjZGf5PrX2-5">
          <mxGeometry x="20" width="30" height="40" as="geometry" />
        </mxCell>
        <mxCell id="l3B4yUSU5wSjZGf5PrX2-8" value="" style="ellipse;whiteSpace=wrap;html=1;aspect=fixed;" vertex="1" parent="l3B4yUSU5wSjZGf5PrX2-5">
          <mxGeometry x="5" y="5" width="30" height="30" as="geometry" />
        </mxCell>
        <mxCell id="l3B4yUSU5wSjZGf5PrX2-9" value="" style="group;rotation=-180;" vertex="1" connectable="0" parent="l3B4yUSU5wSjZGf5PrX2-1">
          <mxGeometry x="45" y="60" width="50" height="40" as="geometry" />
        </mxCell>
        <mxCell id="l3B4yUSU5wSjZGf5PrX2-10" value="" style="ellipse;whiteSpace=wrap;html=1;aspect=fixed;fillColor=#f5f5f5;gradientColor=#b3b3b3;strokeColor=#666666;rotation=-180;" vertex="1" parent="l3B4yUSU5wSjZGf5PrX2-9">
          <mxGeometry x="10" width="40" height="40" as="geometry" />
        </mxCell>
        <mxCell id="l3B4yUSU5wSjZGf5PrX2-11" value="" style="rounded=0;whiteSpace=wrap;html=1;fillColor=#f5f5f5;gradientColor=#b3b3b3;strokeColor=none;rotation=-180;" vertex="1" parent="l3B4yUSU5wSjZGf5PrX2-9">
          <mxGeometry width="30" height="40" as="geometry" />
        </mxCell>
        <mxCell id="l3B4yUSU5wSjZGf5PrX2-12" value="" style="ellipse;whiteSpace=wrap;html=1;aspect=fixed;rotation=-180;" vertex="1" parent="l3B4yUSU5wSjZGf5PrX2-9">
          <mxGeometry x="15" y="5" width="30" height="30" as="geometry" />
        </mxCell>
        <mxCell id="l3B4yUSU5wSjZGf5PrX2-13" value="" style="rounded=0;whiteSpace=wrap;html=1;" vertex="1" parent="l3B4yUSU5wSjZGf5PrX2-1">
          <mxGeometry x="135" y="75" width="1100" height="10" as="geometry" />
        </mxCell>
        <mxCell id="l3B4yUSU5wSjZGf5PrX2-14" value="" style="rounded=0;whiteSpace=wrap;html=1;fillColor=#f5f5f5;gradientColor=#b3b3b3;strokeColor=#666666;" vertex="1" parent="l3B4yUSU5wSjZGf5PrX2-1">
          <mxGeometry x="135" y="75" width="80" height="10" as="geometry" />
        </mxCell>
        <mxCell id="l3B4yUSU5wSjZGf5PrX2-15" value="1" style="text;html=1;align=center;verticalAlign=middle;whiteSpace=wrap;rounded=0;" vertex="1" parent="l3B4yUSU5wSjZGf5PrX2-1">
          <mxGeometry y="40" width="60" height="30" as="geometry" />
        </mxCell>
        <mxCell id="l3B4yUSU5wSjZGf5PrX2-16" value="2" style="text;html=1;align=center;verticalAlign=middle;whiteSpace=wrap;rounded=0;" vertex="1" parent="l3B4yUSU5wSjZGf5PrX2-1">
          <mxGeometry y="10" width="60" height="30" as="geometry" />
        </mxCell>
        <mxCell id="l3B4yUSU5wSjZGf5PrX2-17" value="3" style="text;html=1;align=center;verticalAlign=middle;whiteSpace=wrap;rounded=0;" vertex="1" parent="l3B4yUSU5wSjZGf5PrX2-1">
          <mxGeometry x="1305" y="40" width="60" height="30" as="geometry" />
        </mxCell>
        <mxCell id="l3B4yUSU5wSjZGf5PrX2-18" value="" style="rounded=0;whiteSpace=wrap;html=1;" vertex="1" parent="1">
          <mxGeometry y="600" width="1700" height="40" as="geometry" />
        </mxCell>
        <mxCell id="l3B4yUSU5wSjZGf5PrX2-19" value="" style="rounded=0;whiteSpace=wrap;html=1;fillColor=#f8cecc;gradientColor=#ea6b66;strokeColor=#b85450;" vertex="1" parent="1">
          <mxGeometry y="520" width="1700" height="40" as="geometry" />
        </mxCell>
        <mxCell id="l3B4yUSU5wSjZGf5PrX2-20" style="edgeStyle=orthogonalEdgeStyle;rounded=0;orthogonalLoop=1;jettySize=auto;html=1;entryX=0.926;entryY=0.07;entryDx=0;entryDy=0;entryPerimeter=0;strokeWidth=5;fillColor=#76608a;strokeColor=#432D57;" edge="1" parent="1" source="l3B4yUSU5wSjZGf5PrX2-17" target="l3B4yUSU5wSjZGf5PrX2-18">
          <mxGeometry relative="1" as="geometry">
            <Array as="points">
              <mxPoint x="1574" y="215" />
            </Array>
          </mxGeometry>
        </mxCell>
        <mxCell id="l3B4yUSU5wSjZGf5PrX2-21" style="edgeStyle=orthogonalEdgeStyle;rounded=0;orthogonalLoop=1;jettySize=auto;html=1;entryX=0.045;entryY=0.09;entryDx=0;entryDy=0;entryPerimeter=0;fillColor=#f8cecc;gradientColor=#ea6b66;strokeColor=#b85450;strokeWidth=6;" edge="1" parent="1" source="l3B4yUSU5wSjZGf5PrX2-15" target="l3B4yUSU5wSjZGf5PrX2-19">
          <mxGeometry relative="1" as="geometry">
            <Array as="points">
              <mxPoint x="77" y="215" />
              <mxPoint x="77" y="375" />
            </Array>
          </mxGeometry>
        </mxCell>
        <mxCell id="l3B4yUSU5wSjZGf5PrX2-22" value="" style="ellipse;whiteSpace=wrap;html=1;aspect=fixed;fillColor=#647687;fontColor=#ffffff;strokeColor=#314354;" vertex="1" parent="1">
          <mxGeometry x="170" y="-220" width="80" height="80" as="geometry" />
        </mxCell>
        <mxCell id="l3B4yUSU5wSjZGf5PrX2-23" value="" style="whiteSpace=wrap;html=1;aspect=fixed;fillColor=#647687;fontColor=#ffffff;strokeColor=none;" vertex="1" parent="1">
          <mxGeometry x="170" y="-180" width="80" height="80" as="geometry" />
        </mxCell>
        <mxCell id="l3B4yUSU5wSjZGf5PrX2-24" value="" style="rounded=0;whiteSpace=wrap;html=1;" vertex="1" parent="1">
          <mxGeometry x="190" y="-100" width="10" height="60" as="geometry" />
        </mxCell>
        <mxCell id="l3B4yUSU5wSjZGf5PrX2-25" value="" style="rounded=0;whiteSpace=wrap;html=1;" vertex="1" parent="1">
          <mxGeometry x="220" y="-100" width="10" height="60" as="geometry" />
        </mxCell>
        <mxCell id="l3B4yUSU5wSjZGf5PrX2-26" style="edgeStyle=orthogonalEdgeStyle;rounded=0;orthogonalLoop=1;jettySize=auto;html=1;entryX=0.5;entryY=1;entryDx=0;entryDy=0;fillColor=#fa6800;strokeColor=#C73500;strokeWidth=5;" edge="1" parent="1" source="l3B4yUSU5wSjZGf5PrX2-16" target="l3B4yUSU5wSjZGf5PrX2-25">
          <mxGeometry relative="1" as="geometry">
            <Array as="points">
              <mxPoint x="150" y="185" />
              <mxPoint x="150" y="65" />
              <mxPoint x="225" y="65" />
            </Array>
          </mxGeometry>
        </mxCell>
        <mxCell id="l3B4yUSU5wSjZGf5PrX2-27" value="" style="pointerEvents=1;verticalLabelPosition=bottom;shadow=0;dashed=0;align=center;html=1;verticalAlign=top;shape=mxgraph.electrical.resistors.resistor_2;rotation=90;fillColor=#f0a30a;fontColor=#000000;strokeColor=#BD7000;strokeWidth=5;" vertex="1" parent="1">
          <mxGeometry x="-10" y="230" width="100" height="20" as="geometry" />
        </mxCell>
        <mxCell id="l3B4yUSU5wSjZGf5PrX2-28" style="edgeStyle=orthogonalEdgeStyle;rounded=0;orthogonalLoop=1;jettySize=auto;html=1;entryX=0.168;entryY=0.53;entryDx=0;entryDy=0;entryPerimeter=0;fillColor=#f0a30a;strokeColor=#BD7000;strokeWidth=5;" edge="1" parent="1" source="l3B4yUSU5wSjZGf5PrX2-24" target="l3B4yUSU5wSjZGf5PrX2-27">
          <mxGeometry relative="1" as="geometry">
            <Array as="points">
              <mxPoint x="195" y="30" />
              <mxPoint x="39" y="30" />
            </Array>
          </mxGeometry>
        </mxCell>
        <mxCell id="l3B4yUSU5wSjZGf5PrX2-29" style="edgeStyle=orthogonalEdgeStyle;rounded=0;orthogonalLoop=1;jettySize=auto;html=1;entryX=0.024;entryY=-0.05;entryDx=0;entryDy=0;entryPerimeter=0;fillColor=#f0a30a;strokeColor=#BD7000;strokeWidth=5;" edge="1" parent="1" source="l3B4yUSU5wSjZGf5PrX2-27" target="l3B4yUSU5wSjZGf5PrX2-18">
          <mxGeometry relative="1" as="geometry" />
        </mxCell>
        <mxCell id="aSfHHlNjs6zHfRD9uDGO-1" value="" style="verticalLabelPosition=bottom;shadow=0;dashed=0;align=center;html=1;verticalAlign=top;shape=mxgraph.electrical.opto_electronics.lamp" vertex="1" parent="1">
          <mxGeometry x="420" y="-230" width="50" height="100" as="geometry" />
        </mxCell>
        <mxCell id="aSfHHlNjs6zHfRD9uDGO-2" value="" style="pointerEvents=1;verticalLabelPosition=bottom;shadow=0;dashed=0;align=center;html=1;verticalAlign=top;shape=mxgraph.electrical.signal_sources.signal_ground;" vertex="1" parent="1">
          <mxGeometry x="410" y="-5" width="40" height="40" as="geometry" />
        </mxCell>
        <mxCell id="aSfHHlNjs6zHfRD9uDGO-3" value="" style="pointerEvents=1;verticalLabelPosition=bottom;shadow=0;dashed=0;align=center;html=1;verticalAlign=top;shape=mxgraph.electrical.signal_sources.protective_earth;rotation=-180;" vertex="1" parent="1">
          <mxGeometry x="520" y="-230" width="40" height="40" as="geometry" />
        </mxCell>
        <mxCell id="aSfHHlNjs6zHfRD9uDGO-4" value="" style="pointerEvents=1;verticalLabelPosition=bottom;shadow=0;dashed=0;align=center;html=1;verticalAlign=top;shape=mxgraph.electrical.resistors.potentiometer_1;rotation=90;" vertex="1" parent="1">
          <mxGeometry x="480" y="-95" width="100" height="40" as="geometry" />
        </mxCell>
        <mxCell id="aSfHHlNjs6zHfRD9uDGO-9" style="edgeStyle=orthogonalEdgeStyle;rounded=0;orthogonalLoop=1;jettySize=auto;html=1;endArrow=none;endFill=0;" edge="1" parent="1" source="aSfHHlNjs6zHfRD9uDGO-5">
          <mxGeometry relative="1" as="geometry">
            <mxPoint x="430" y="-5" as="targetPoint" />
          </mxGeometry>
        </mxCell>
        <mxCell id="aSfHHlNjs6zHfRD9uDGO-5" value="360 Ohm&lt;div&gt;&lt;br&gt;&lt;/div&gt;" style="pointerEvents=1;verticalLabelPosition=bottom;shadow=0;dashed=0;align=center;html=1;verticalAlign=top;shape=mxgraph.electrical.resistors.resistor_2;rotation=90;" vertex="1" parent="1">
          <mxGeometry x="380" y="-85" width="100" height="20" as="geometry" />
        </mxCell>
        <mxCell id="aSfHHlNjs6zHfRD9uDGO-6" style="edgeStyle=orthogonalEdgeStyle;rounded=0;orthogonalLoop=1;jettySize=auto;html=1;entryX=0.8;entryY=1;entryDx=0;entryDy=0;entryPerimeter=0;endArrow=none;endFill=0;" edge="1" parent="1" source="aSfHHlNjs6zHfRD9uDGO-4" target="aSfHHlNjs6zHfRD9uDGO-1">
          <mxGeometry relative="1" as="geometry" />
        </mxCell>
        <mxCell id="aSfHHlNjs6zHfRD9uDGO-8" style="edgeStyle=orthogonalEdgeStyle;rounded=0;orthogonalLoop=1;jettySize=auto;html=1;exitX=1;exitY=0.25;exitDx=0;exitDy=0;exitPerimeter=0;entryX=0.5;entryY=0;entryDx=0;entryDy=0;entryPerimeter=0;endArrow=none;endFill=0;" edge="1" parent="1" source="aSfHHlNjs6zHfRD9uDGO-4" target="aSfHHlNjs6zHfRD9uDGO-2">
          <mxGeometry relative="1" as="geometry">
            <Array as="points">
              <mxPoint x="540" y="-5" />
              <mxPoint x="430" y="-5" />
            </Array>
          </mxGeometry>
        </mxCell>
        <mxCell id="aSfHHlNjs6zHfRD9uDGO-10" style="edgeStyle=orthogonalEdgeStyle;rounded=0;orthogonalLoop=1;jettySize=auto;html=1;exitX=0.2;exitY=1;exitDx=0;exitDy=0;exitPerimeter=0;entryX=0.043;entryY=0.513;entryDx=0;entryDy=0;entryPerimeter=0;endArrow=none;endFill=0;" edge="1" parent="1" source="aSfHHlNjs6zHfRD9uDGO-1" target="aSfHHlNjs6zHfRD9uDGO-5">
          <mxGeometry relative="1" as="geometry" />
        </mxCell>
        <mxCell id="aSfHHlNjs6zHfRD9uDGO-12" value="" style="edgeStyle=orthogonalEdgeStyle;rounded=0;orthogonalLoop=1;jettySize=auto;html=1;exitX=0;exitY=0.25;exitDx=0;exitDy=0;exitPerimeter=0;entryX=0.5;entryY=0;entryDx=0;entryDy=0;entryPerimeter=0;endArrow=none;endFill=0;" edge="1" parent="1" source="aSfHHlNjs6zHfRD9uDGO-4" target="aSfHHlNjs6zHfRD9uDGO-3">
          <mxGeometry relative="1" as="geometry" />
        </mxCell>
        <mxCell id="aSfHHlNjs6zHfRD9uDGO-13" value="10k Sliding" style="text;html=1;align=center;verticalAlign=middle;whiteSpace=wrap;rounded=0;rotation=90;" vertex="1" parent="1">
          <mxGeometry x="550" y="-90" width="60" height="30" as="geometry" />
        </mxCell>
        <mxCell id="aSfHHlNjs6zHfRD9uDGO-14" value="&lt;font&gt;9v DC&lt;/font&gt;" style="text;html=1;align=center;verticalAlign=middle;whiteSpace=wrap;rounded=0;rotation=0;fontColor=default;" vertex="1" parent="1">
          <mxGeometry x="530" y="-200" width="60" height="30" as="geometry" />
        </mxCell>
      </root>
    </mxGraphModel>
  </diagram>
</mxfile>
